<svg xmlns="http://www.w3.org/2000/svg" width="26" height="26" id="career"><g fill="#fff" transform="translate(5 -1031.362)"><circle cx="657.054" cy="437.094" r="15.268" fill="#9257a2" fill-rule="evenodd" transform="translate(-551.456 672.193) scale(.85146)"></circle><path style="line-height:normal;text-indent:0;text-align:start;text-decoration-line:none;text-decoration-style:solid;text-decoration-color:#000;text-transform:none;block-progression:tb;isolation:auto;mix-blend-mode:normal" fill="#6c4676" d="M15.125 25.809a13 13 0 0 0 .457-.069 13 13 0 0 0 1.26-.32 13 13 0 0 0 1.22-.445 13 13 0 0 0 1.17-.567 13 13 0 0 0 1.108-.68 13 13 0 0 0 1.035-.785 13 13 0 0 0 .951-.886 13 13 0 0 0 .858-.977 13 13 0 0 0 .755-1.057 13 13 0 0 0 .647-1.127 13 13 0 0 0 .531-1.185 13 13 0 0 0 .408-1.234 13 13 0 0 0 .274-1.22l-5.307-5.306-7.494-2.941-7.49 2.941 1.369 1.37-1.607.632 1.435 1.436-1.437.564 1.435 1.436-1.433.564 9.855 9.856z" color="#000" font-family="sans-serif" font-weight="400" transform="translate(-5 1031.362)"></path><path d="M7.998 2.113.508 5.057l.564.222 1.864.733L.27 7.059l2.544 1-2.546 1 2.546 1-2.544 1L8 14.096l7.73-3.037-2.544-1 2.546-1-2.544-1 2.542-1-2.666-1.05 2.428-.952-7.494-2.944ZM8 3l5.236 2.057L8 7.113 2.766 5.057 8 3ZM4.3 6.547 8 8l3.7-1.453 1.296.51L8 9.02 3.004 7.057l1.297-.51Zm-.12 2.047L8 10.096l3.82-1.5 1.176.46-1.316.518L8 11.02 4.385 9.6l-1.381-.543 1.176-.463Zm.002 2L8 12.096l3.818-1.5 1.178.46L8 13.02l-4.996-1.963 1.178-.463Z" color="#000" font-family="sans-serif" font-weight="400" overflow="visible" transform="translate(0 1036.258)" style="line-height:normal;text-indent:0;text-align:start;text-decoration-line:none;text-decoration-style:solid;text-decoration-color:#000;text-transform:none;block-progression:tb;isolation:auto;mix-blend-mode:normal"></path></g></svg>